# xmcd CD database file
#
# Track frame offsets:
#	150
#	24975
#	50925
#	56850
#	81825
#
# Disc length: 1478 seconds
#
# Revision: 1
# Processed by: cddbd v1.5.1PL0 Copyright (c) Steve Scherf et al.
# Submitted via: freeDBTagger 0.5
#
DISCID=4005c405
DTITLE=角松敏生 - Always Be With You
DYEAR=2002
DGENRE=rock
TTITLE0=Always Be With You
TTITLE1=Always Be With You(Acoustic Version)
TTITLE2=Always Be With You(Reprise)
TTITLE3=Always Be With You(Instrumental)
TTITLE4=もどり道(Toshiki Kadomatsu 20th Anniversary Live Version)
EXTD=
EXTT0=
EXTT1=
EXTT2=
EXTT3=
EXTT4=
PLAYORDER=
